<svg viewBox="0 0 1024 1024" xmlns="http://www.w3.org/2000/svg">
  <path d="M880 112H144c-17.7 0-32 14.3-32 32v736c0 17.7 14.3 32 32 32h736c17.7 0 32-14.3 32-32V144c0-17.7-14.3-32-32-32zM816 816H208V208h608v608z" fill="currentColor"/>
  <path d="M484 420h56c4.4 0 8-3.6 8-8v-56c0-4.4-3.6-8-8-8h-56c-4.4 0-8 3.6-8 8v56c0 4.4 3.6 8 8 8zM620 420h56c4.4 0 8-3.6 8-8v-56c0-4.4-3.6-8-8-8h-56c-4.4 0-8 3.6-8 8v56c0 4.4 3.6 8 8 8zM484 556h56c4.4 0 8-3.6 8-8v-56c0-4.4-3.6-8-8-8h-56c-4.4 0-8 3.6-8 8v56c0 4.4 3.6 8 8 8zM620 556h56c4.4 0 8-3.6 8-8v-56c0-4.4-3.6-8-8-8h-56c-4.4 0-8 3.6-8 8v56c0 4.4 3.6 8 8 8zM484 692h56c4.4 0 8-3.6 8-8v-56c0-4.4-3.6-8-8-8h-56c-4.4 0-8 3.6-8 8v56c0 4.4 3.6 8 8 8zM620 692h56c4.4 0 8-3.6 8-8v-56c0-4.4-3.6-8-8-8h-56c-4.4 0-8 3.6-8 8v56c0 4.4 3.6 8 8 8z" fill="currentColor"/>
  <path d="M304 368h112c4.4 0 8-3.6 8-8v-48c0-4.4-3.6-8-8-8H304c-4.4 0-8 3.6-8 8v48c0 4.4 3.6 8 8 8zM304 504h112c4.4 0 8-3.6 8-8v-48c0-4.4-3.6-8-8-8H304c-4.4 0-8 3.6-8 8v48c0 4.4 3.6 8 8 8zM304 640h112c4.4 0 8-3.6 8-8v-48c0-4.4-3.6-8-8-8H304c-4.4 0-8 3.6-8 8v48c0 4.4 3.6 8 8 8z" fill="currentColor"/>
</svg>