<?xml version="1.0" encoding="UTF-8"?>
<svg width="24px" height="24px" viewBox="0 0 24 24" version="1.1" xmlns="http://www.w3.org/2000/svg" xmlns:xlink="http://www.w3.org/1999/xlink">
    <title>我的成就</title>
    <g stroke="none" stroke-width="1" fill="none" fill-rule="evenodd">
        <path d="M20,12 L20,4 L4,4 L4,12 C4,12.55 4.45,13 5,13 L9,13 L7,17 L12.5,13 L19,13 C19.55,13 20,12.55 20,12 Z M5,2 L19,2 C20.1,2 21,2.9 21,4 L21,12 C21,13.1 20.1,14 19,14 L13.17,14 L10.58,16.65 C10.22,17.03 9.66,17.11 9.22,16.83 C8.78,16.56 8.62,16.01 8.84,15.54 L10.5,12 L5,12 C3.9,12 3,11.1 3,10 L3,4 C3,2.9 3.9,2 5,2 Z M12,5.5 L12.96,7.44 L15.1,7.73 L13.55,9.24 L13.9,11.37 L12,10.36 L10.1,11.37 L10.45,9.24 L8.9,7.73 L11.04,7.44 L12,5.5 Z" fill="#fecf42"></path>
    </g>
</svg> 