<svg viewBox="0 0 1024 1024" xmlns="http://www.w3.org/2000/svg">
  <path d="M854.6 288.6L639.4 73.4c-6-6-14.1-9.4-22.6-9.4H192c-17.7 0-32 14.3-32 32v832c0 17.7 14.3 32 32 32h640c17.7 0 32-14.3 32-32V311.3c0-8.5-3.4-16.7-9.4-22.7zM602 137.8L790.2 326H602V137.8zM792 896H232V128h302v240c0 17.7 14.3 32 32 32h226v496z" fill="currentColor"/>
  <path d="M304 456h200c4.4 0 8-3.6 8-8v-48c0-4.4-3.6-8-8-8H304c-4.4 0-8 3.6-8 8v48c0 4.4 3.6 8 8 8zM304 570h200c4.4 0 8-3.6 8-8v-48c0-4.4-3.6-8-8-8H304c-4.4 0-8 3.6-8 8v48c0 4.4 3.6 8 8 8zM304 684h200c4.4 0 8-3.6 8-8v-48c0-4.4-3.6-8-8-8H304c-4.4 0-8 3.6-8 8v48c0 4.4 3.6 8 8 8z" fill="currentColor"/>
</svg>