<?xml version="1.0" encoding="UTF-8"?>
<svg width="24px" height="24px" viewBox="0 0 24 24" version="1.1" xmlns="http://www.w3.org/2000/svg" xmlns:xlink="http://www.w3.org/1999/xlink">
    <title>错题本</title>
    <g stroke="none" stroke-width="1" fill="none" fill-rule="evenodd">
        <path d="M19,3 L5,3 C3.9,3 3,3.9 3,5 L3,19 C3,20.1 3.9,21 5,21 L19,21 C20.1,21 21,20.1 21,19 L21,5 C21,3.9 20.1,3 19,3 Z M15.7,14.3 C16.09,14.69 16.09,15.33 15.7,15.72 C15.31,16.11 14.67,16.11 14.28,15.72 L12,13.44 L9.72,15.72 C9.33,16.11 8.69,16.11 8.3,15.72 C7.91,15.33 7.91,14.69 8.3,14.3 L10.58,12.02 L8.3,9.73 C7.91,9.34 7.91,8.7 8.3,8.31 C8.69,7.92 9.33,7.92 9.72,8.31 L12,10.59 L14.28,8.31 C14.67,7.92 15.31,7.92 15.7,8.31 C16.09,8.7 16.09,9.34 15.7,9.73 L13.42,12.02 L15.7,14.3 Z" fill="#fa4343"></path>
    </g>
</svg> 